<svg width="14" height="15" viewBox="0 0 14 15" fill="none" xmlns="http://www.w3.org/2000/svg">
<g clip-path="url(#clip0_822_720)">
<path d="M11.8499 13.6915H5.26465C4.46358 13.6915 3.81201 13.0399 3.81201 12.2388V5.65353C3.81201 4.85247 4.46358 4.2009 5.26465 4.2009H11.8499C12.651 4.2009 13.3026 4.85247 13.3026 5.65353V12.2388C13.3026 13.0399 12.651 13.6915 11.8499 13.6915ZM5.26465 5.16932C4.99765 5.16932 4.78044 5.38654 4.78044 5.65353V12.2388C4.78044 12.5058 4.99765 12.723 5.26465 12.723H11.8499C12.1169 12.723 12.3341 12.5058 12.3341 12.2388V5.65353C12.3341 5.38654 12.1169 5.16932 11.8499 5.16932H5.26465ZM2.84359 9.81776H2.35938C2.09238 9.81776 1.87516 9.60055 1.87516 9.33355V2.74826C1.87516 2.48126 2.09238 2.26405 2.35938 2.26405H8.94466C9.21166 2.26405 9.42887 2.48126 9.42887 2.74826V3.20826H10.3973V2.74826C10.3973 1.94719 9.74573 1.29562 8.94466 1.29562H2.35938C1.55831 1.29562 0.906738 1.94719 0.906738 2.74826V9.33355C0.906738 10.1346 1.55831 10.7862 2.35938 10.7862H2.84359V9.81776Z" fill="#D7D7D7"/>
</g>
<defs>
<clipPath id="clip0_822_720">
<rect width="13.2222" height="13.2222" fill="white" transform="translate(0.5 0.888885)"/>
</clipPath>
</defs>
</svg>
