<svg width="21" height="21" viewBox="0 0 21 21" fill="none" xmlns="http://www.w3.org/2000/svg">
<g clip-path="url(#clip0_822_16)">
<path d="M10.5 0.4375C4.69875 0.4375 0 5.0575 0 10.7555C0 15.3151 3.00825 19.1818 7.17937 20.545C7.70437 20.6421 7.89687 20.3228 7.89687 20.0489C7.89687 19.8039 7.88813 19.1546 7.88375 18.2945C4.963 18.9166 4.347 16.9103 4.347 16.9103C3.86925 15.7194 3.17887 15.4009 3.17887 15.4009C2.22775 14.7613 3.25238 14.7744 3.25238 14.7744C4.30675 14.8461 4.86062 15.8375 4.86062 15.8375C5.79688 17.4151 7.3185 16.9593 7.91875 16.6959C8.01325 16.0283 8.28363 15.5741 8.58375 15.316C6.25188 15.0579 3.801 14.1706 3.801 10.2174C3.801 9.09125 4.20788 8.17075 4.88163 7.44887C4.7635 7.18813 4.40912 6.139 4.9735 4.718C4.9735 4.718 5.85288 4.4415 7.861 5.77588C8.701 5.54663 9.5935 5.43288 10.486 5.42763C11.3785 5.43288 12.271 5.54663 13.111 5.77588C15.106 4.4415 15.9854 4.718 15.9854 4.718C16.5497 6.139 16.1954 7.18813 16.0904 7.44887C16.7598 8.17075 17.1666 9.09125 17.1666 10.2174C17.1666 14.1811 14.7122 15.0535 12.376 15.3073C12.7435 15.617 13.0848 16.2496 13.0848 17.2165C13.0848 18.5973 13.0716 19.7068 13.0716 20.0419C13.0716 20.3123 13.2554 20.6351 13.7935 20.5319C17.9944 19.1774 21 15.3081 21 10.7555C21 5.0575 16.2986 0.4375 10.5 0.4375Z" fill="white"/>
</g>
<defs>
<clipPath id="clip0_822_16">
<rect width="21" height="21" fill="white"/>
</clipPath>
</defs>
</svg>
